<svg width="603" height="596" viewBox="0 0 603 596" fill="none" xmlns="http://www.w3.org/2000/svg">
<path d="M301.5 0L338.296 21.7537L379.534 10.1541L409.379 40.5794L452.25 39.9244L473.111 76.948L514.693 87.2822L525.148 128.381L562.607 149L561.944 191.373L592.727 220.872L580.991 261.632L603 298L580.991 334.368L592.727 375.128L561.944 404.627L562.607 447L525.148 467.619L514.693 508.718L473.111 519.052L452.25 556.076L409.379 555.421L379.534 585.846L338.296 574.246L301.5 596L264.704 574.246L223.466 585.846L193.621 555.421L150.75 556.076L129.889 519.052L88.3073 508.718L77.8517 467.619L40.3933 447L41.0561 404.627L10.2734 375.128L22.0092 334.368L0 298L22.0092 261.632L10.2734 220.872L41.0561 191.373L40.3933 149L77.8517 128.381L88.3073 87.2822L129.889 76.948L150.75 39.9244L193.621 40.5794L223.466 10.1541L264.704 21.7537L301.5 0Z" fill="url(#paint0_linear_42_573)"/>
<path d="M301.5 28L334.878 47.7097L372.287 37.2L399.361 64.7666L438.25 64.1731L457.174 97.7179L494.894 107.081L504.378 144.318L538.358 163L537.757 201.392L565.681 228.119L555.035 265.049L575 298L555.035 330.951L565.681 367.881L537.757 394.608L538.358 433L504.378 451.682L494.894 488.919L457.174 498.282L438.25 531.827L399.361 531.233L372.287 558.8L334.878 548.29L301.5 568L268.122 548.29L230.713 558.8L203.639 531.233L164.75 531.827L145.826 498.282L108.106 488.919L98.6217 451.682L64.6421 433L65.2432 394.608L37.3193 367.881L47.9652 330.951L28 298L47.9652 265.049L37.3193 228.119L65.2432 201.392L64.6421 163L98.6217 144.318L108.106 107.081L145.826 97.7179L164.75 64.1731L203.639 64.7666L230.713 37.2L268.122 47.7097L301.5 28Z" fill="url(#paint1_linear_42_573)"/>
<path d="M304.32 187.145L321.305 204.101L304.32 221.116L287.335 204.101L304.32 187.145ZM162.682 329.874L179.667 312.918L179.667 312.918L162.682 329.874ZM316.544 450.035L333.5 467.021L299.529 500.932L282.573 483.947L316.544 450.035ZM438.632 185.915L455.617 168.959L455.617 168.959L438.632 185.915ZM438.632 329.874L455.617 346.829L455.617 346.829L438.632 329.874ZM287.335 204.101C277.01 193.758 256.942 186.546 233.431 186.574C209.909 186.602 189.88 193.87 179.667 204.101L145.696 170.189C168.056 147.791 202.428 138.611 233.373 138.574C264.33 138.537 298.795 147.639 321.305 170.189L287.335 204.101ZM179.667 204.101C168.954 214.832 161.158 234.703 160.733 257.44C160.311 280.006 167.238 300.467 179.667 312.918L145.696 346.829C121.512 322.602 112.153 288.015 112.741 256.543C113.326 225.243 123.837 192.087 145.696 170.189L179.667 204.101ZM179.667 312.918L316.544 450.035L282.573 483.947L145.696 346.829L179.667 312.918ZM287.335 170.189C309.802 147.682 343.125 138.941 372.804 139.06C402.288 139.179 434.777 148.083 455.617 168.959L421.646 202.87C412.89 194.099 394.663 187.148 372.611 187.06C350.753 186.972 331.718 193.67 321.305 204.101L287.335 170.189ZM455.617 168.959C476.236 189.614 486.95 222.728 488.074 254.072C489.21 285.745 480.762 321.64 455.617 346.829L421.646 312.918C434.388 300.154 440.941 279.096 440.105 255.792C439.257 232.157 431.028 212.269 421.646 202.87L455.617 168.959ZM455.617 346.829L366.056 436.548L332.085 402.637L421.646 312.918L455.617 346.829Z" fill="white"/>
<defs>
<linearGradient id="paint0_linear_42_573" x1="301.456" y1="0" x2="301.456" y2="795.122" gradientUnits="userSpaceOnUse">
<stop stop-color="#FFF2AE"/>
<stop offset="1" stop-color="#F5F7A8" stop-opacity="0"/>
</linearGradient>
<linearGradient id="paint1_linear_42_573" x1="302.036" y1="0.727275" x2="302.036" y2="595.273" gradientUnits="userSpaceOnUse">
<stop stop-color="#FD897A"/>
<stop offset="1" stop-color="#FFD584"/>
</linearGradient>
</defs>
</svg>
