<svg width="71" height="68" viewBox="0 0 71 68" fill="none" xmlns="http://www.w3.org/2000/svg">
<path d="M34.4655 8.86318L31.637 11.6916L34.4655 14.52L37.2939 11.6916L34.4655 8.86318ZM61.4068 35.9643L58.5784 33.1359L58.5784 33.1359L61.4068 35.9643ZM32.5427 59.1716L29.7143 62L35.3712 67.6569L38.1996 64.8284L32.5427 59.1716ZM8.91774 8.62955L6.08931 5.80112L6.08931 5.80112L8.91774 8.62955ZM8.91774 35.9643L6.0893 38.7927L6.08931 38.7927L8.91774 35.9643ZM37.2939 11.6916C39.401 9.5845 43.3887 8.19216 47.9501 8.19766C52.5134 8.20317 56.493 9.60624 58.5784 11.6916L64.2353 6.03476C60.1249 1.92443 53.7568 0.204664 47.9597 0.197669C42.1608 0.190671 35.7756 1.89617 31.637 6.03476L37.2939 11.6916ZM58.5784 11.6916C60.746 13.8592 62.2599 17.7855 62.3425 22.2004C62.4247 26.5865 61.0795 30.6348 58.5784 33.1359L64.2353 38.7927C68.6985 34.3295 70.4512 27.925 70.3411 22.0506C70.2317 16.2049 68.2633 10.0628 64.2353 6.03476L58.5784 11.6916ZM58.5784 33.1359L32.5427 59.1716L38.1996 64.8284L64.2353 38.7927L58.5784 33.1359ZM37.2939 6.03476C33.1619 1.90275 26.9927 0.267656 21.4413 0.289953C15.9222 0.31212 9.9113 1.97913 6.08931 5.80112L11.7462 11.458C13.5537 9.65042 17.1895 8.30709 21.4734 8.28989C25.7249 8.27281 29.5147 9.56931 31.637 11.6916L37.2939 6.03476ZM6.08931 5.80112C2.29824 9.5922 0.288524 15.7271 0.0778865 21.5908C-0.134736 27.5098 1.45088 34.1543 6.0893 38.7927L11.7462 33.1359C9.17803 30.5677 7.91036 26.3982 8.07273 21.878C8.23709 17.3026 9.83066 13.3735 11.7462 11.458L6.08931 5.80112ZM6.08931 38.7927L23.125 55.8284L28.7818 50.1716L11.7462 33.1359L6.08931 38.7927Z" fill="white"/>
</svg>
