<svg width="390" height="92" viewBox="0 0 390 92" fill="none" xmlns="http://www.w3.org/2000/svg">
<g opacity="0.5">
<path d="M233.703 40.8095H237.703V44.8095L233.703 44.8095L233.703 40.8095ZM233.816 79.0234L233.816 75.0234L233.816 75.0234L233.816 79.0234ZM270.636 75.0234L274.636 75.0234L274.636 83.0234L270.636 83.0234L270.636 75.0234ZM251.602 22.5794L251.602 18.5794L251.602 18.5794L251.602 22.5794ZM270.931 41.908L274.931 41.908L274.931 41.908L270.931 41.908ZM233.703 44.8095C230.723 44.8095 226.919 46.6447 223.697 49.874C220.474 53.1047 218.652 56.9108 218.652 59.86L210.652 59.86C210.652 54.0471 213.939 48.328 218.033 44.224C222.129 40.1186 227.85 36.8095 233.703 36.8095L233.703 44.8095ZM218.652 59.86C218.652 62.9255 220.358 66.7722 223.421 69.9525C226.465 73.112 230.279 75.0234 233.816 75.0234V83.0234C227.504 83.0234 221.736 79.734 217.66 75.5024C213.604 71.2915 210.652 65.5565 210.652 59.86L218.652 59.86ZM233.816 75.0234L270.636 75.0234L270.636 83.0234L233.816 83.0234L233.816 75.0234ZM229.703 40.8095C229.703 34.966 232.909 29.4475 236.85 25.5378C240.768 21.651 246.197 18.5794 251.602 18.5794L251.602 26.5794C249.046 26.5794 245.525 28.2004 242.484 31.2174C239.466 34.2116 237.703 37.8081 237.703 40.8095H229.703ZM251.602 18.5794C256.964 18.5794 262.723 21.4963 267.018 25.4937C271.354 29.5286 274.931 35.3482 274.931 41.908L266.931 41.908C266.931 38.2761 264.879 34.4314 261.568 31.3499C258.217 28.2309 254.311 26.5794 251.602 26.5794L251.602 18.5794ZM274.931 41.908L274.931 66.0001L266.931 66.0001L266.931 41.908L274.931 41.908Z" fill="white"/>
</g>
<g opacity="0.5">
<path d="M318.449 46.7053L324.449 46.679L324.476 52.7318L318.423 52.7052L318.449 46.7053ZM318.922 111.069L318.948 105.069L318.948 105.069L318.922 111.069ZM380.963 105.341L386.963 105.367L386.911 117.367L380.911 117.341L380.963 105.341ZM348.463 16.1328L348.489 10.1329L348.489 10.1329L348.463 16.1328ZM381.16 48.8304L387.16 48.8041L387.16 48.8041L381.16 48.8304ZM318.423 52.7052C313.146 52.6821 306.591 55.8736 301.121 61.3569C295.649 66.8422 292.481 73.4001 292.504 78.6244L280.504 78.6771C280.462 69.1438 285.828 59.6963 292.626 52.8819C299.425 46.0656 308.876 40.6632 318.475 40.7054L318.423 52.7052ZM292.504 78.6244C292.527 84.0353 295.549 90.7157 300.837 96.2035C306.095 101.661 312.729 105.042 318.948 105.069L318.895 117.069C308.526 117.023 298.983 111.574 292.196 104.53C285.438 97.5162 280.545 88.0239 280.504 78.6771L292.504 78.6244ZM318.948 105.069L380.963 105.341L380.911 117.341L318.895 117.069L318.948 105.069ZM312.449 46.7316C312.407 37.1449 317.64 28.0353 324.178 21.5507C330.68 15.1006 339.641 10.0941 348.489 10.1329L348.436 22.1328C343.875 22.1128 337.797 24.9438 332.628 30.0703C327.495 35.1623 324.426 41.3684 324.449 46.679L312.449 46.7316ZM348.489 10.1329C357.269 10.1714 366.805 15.0046 373.969 21.676C381.193 28.4028 387.113 38.0324 387.16 48.8041L375.16 48.8568C375.132 42.4629 371.5 35.7735 365.791 30.4579C360.024 25.0867 353.249 22.1539 348.436 22.1328L348.489 10.1329ZM387.16 48.8041L387.338 89.3819L375.338 89.4346L375.16 48.8568L387.16 48.8041Z" fill="white"/>
</g>
<g opacity="0.5">
<path d="M46.4108 75.8095H42.4108V79.8095L46.4108 79.8095L46.4108 75.8095ZM46.2979 114.023L46.2979 110.023L46.2979 110.023L46.2979 114.023ZM9.47787 110.023L5.47787 110.023L5.47787 118.023L9.47787 118.023L9.47787 110.023ZM28.5111 57.5794L28.5111 53.5794L28.5111 53.5794L28.5111 57.5794ZM9.18248 76.908L5.18248 76.908L5.18248 76.908L9.18248 76.908ZM46.4108 79.8095C49.3907 79.8095 53.195 81.6447 56.4165 84.874C59.6394 88.1047 61.4613 91.9108 61.4613 94.86L69.4613 94.86C69.4613 89.0471 66.1744 83.328 62.0802 79.224C57.9847 75.1186 52.2637 71.8095 46.4108 71.8095L46.4108 79.8095ZM61.4613 94.86C61.4613 97.9255 59.7554 101.772 56.6921 104.952C53.6487 108.112 49.835 110.023 46.2979 110.023V118.023C52.6098 118.023 58.3778 114.734 62.4539 110.502C66.51 106.291 69.4613 100.556 69.4613 94.86L61.4613 94.86ZM46.2979 110.023L9.47787 110.023L9.47787 118.023L46.2979 118.023L46.2979 110.023ZM50.4108 75.8095C50.4108 69.966 47.2047 64.4475 43.2635 60.5378C39.3453 56.651 33.9162 53.5794 28.5111 53.5794L28.5111 61.5794C31.0674 61.5794 34.5881 63.2004 37.6294 66.2174C40.6478 69.2116 42.4108 72.8081 42.4108 75.8095H50.4108ZM28.5111 53.5794C23.1497 53.5794 17.3905 56.4963 13.0953 60.4937C8.75968 64.5286 5.18249 70.3482 5.18248 76.908L13.1825 76.908C13.1825 73.2761 15.2344 69.4314 18.5455 66.3499C21.897 63.2309 25.8021 61.5794 28.5111 61.5794L28.5111 53.5794ZM5.18248 76.908L5.18248 101L13.1825 101L13.1825 76.908L5.18248 76.908Z" fill="white"/>
</g>
</svg>
