<svg width="386" height="92" viewBox="0 0 386 92" fill="none" xmlns="http://www.w3.org/2000/svg">
<g opacity="0.5">
<path d="M249.703 40.8095H253.703V44.8095L249.703 44.8095L249.703 40.8095ZM249.816 79.0234L249.816 75.0234L249.816 75.0234L249.816 79.0234ZM286.636 75.0234L290.636 75.0234L290.636 83.0234L286.636 83.0234L286.636 75.0234ZM267.602 22.5794L267.602 18.5794L267.602 18.5794L267.602 22.5794ZM286.931 41.908L290.931 41.908L290.931 41.908L286.931 41.908ZM249.703 44.8095C246.723 44.8095 242.919 46.6447 239.697 49.874C236.474 53.1047 234.652 56.9108 234.652 59.86L226.652 59.86C226.652 54.0471 229.939 48.328 234.033 44.224C238.129 40.1186 243.85 36.8095 249.703 36.8095L249.703 44.8095ZM234.652 59.86C234.652 62.9255 236.358 66.7722 239.421 69.9525C242.465 73.112 246.279 75.0234 249.816 75.0234V83.0234C243.504 83.0234 237.736 79.734 233.66 75.5024C229.604 71.2915 226.652 65.5565 226.652 59.86L234.652 59.86ZM249.816 75.0234L286.636 75.0234L286.636 83.0234L249.816 83.0234L249.816 75.0234ZM245.703 40.8095C245.703 34.966 248.909 29.4475 252.85 25.5378C256.768 21.651 262.197 18.5794 267.602 18.5794L267.602 26.5794C265.046 26.5794 261.525 28.2004 258.484 31.2174C255.466 34.2116 253.703 37.8081 253.703 40.8095H245.703ZM267.602 18.5794C272.964 18.5794 278.723 21.4963 283.018 25.4937C287.354 29.5286 290.931 35.3482 290.931 41.908L282.931 41.908C282.931 38.2761 280.879 34.4314 277.568 31.3499C274.217 28.2309 270.311 26.5794 267.602 26.5794L267.602 18.5794ZM290.931 41.908L290.931 66.0001L282.931 66.0001L282.931 41.908L290.931 41.908Z" fill="white"/>
</g>
<g opacity="0.5">
<path d="M334.449 46.7053L340.449 46.679L340.476 52.7318L334.423 52.7052L334.449 46.7053ZM334.922 111.069L334.948 105.069L334.948 105.069L334.922 111.069ZM396.963 105.341L402.963 105.367L402.911 117.367L396.911 117.341L396.963 105.341ZM364.463 16.1328L364.489 10.1329L364.489 10.1329L364.463 16.1328ZM397.16 48.8304L403.16 48.8041L403.16 48.8041L397.16 48.8304ZM334.423 52.7052C329.146 52.6821 322.591 55.8736 317.121 61.3569C311.649 66.8422 308.481 73.4001 308.504 78.6244L296.504 78.6771C296.462 69.1438 301.828 59.6963 308.626 52.8819C315.425 46.0656 324.876 40.6632 334.475 40.7054L334.423 52.7052ZM308.504 78.6244C308.527 84.0353 311.549 90.7157 316.837 96.2035C322.095 101.661 328.729 105.042 334.948 105.069L334.895 117.069C324.526 117.023 314.983 111.574 308.196 104.53C301.438 97.5162 296.545 88.0239 296.504 78.6771L308.504 78.6244ZM334.948 105.069L396.963 105.341L396.911 117.341L334.895 117.069L334.948 105.069ZM328.449 46.7316C328.407 37.1449 333.64 28.0353 340.178 21.5507C346.68 15.1006 355.641 10.0941 364.489 10.1329L364.436 22.1328C359.875 22.1128 353.797 24.9438 348.628 30.0703C343.495 35.1623 340.426 41.3684 340.449 46.679L328.449 46.7316ZM364.489 10.1329C373.269 10.1714 382.805 15.0046 389.969 21.676C397.193 28.4028 403.113 38.0324 403.16 48.8041L391.16 48.8568C391.132 42.4629 387.5 35.7735 381.791 30.4579C376.024 25.0867 369.249 22.1539 364.436 22.1328L364.489 10.1329ZM403.16 48.8041L403.338 89.3819L391.338 89.4346L391.16 48.8568L403.16 48.8041Z" fill="white"/>
</g>
<g opacity="0.5">
<path d="M62.4108 75.8095H58.4108V79.8095L62.4108 79.8095L62.4108 75.8095ZM62.2979 114.023L62.2979 110.023L62.2979 110.023L62.2979 114.023ZM25.4779 110.023L21.4779 110.023L21.4779 118.023L25.4779 118.023L25.4779 110.023ZM44.5111 57.5794L44.5111 53.5794L44.5111 53.5794L44.5111 57.5794ZM25.1825 76.908L21.1825 76.908L21.1825 76.908L25.1825 76.908ZM62.4108 79.8095C65.3907 79.8095 69.195 81.6447 72.4165 84.874C75.6394 88.1047 77.4613 91.9108 77.4613 94.86L85.4613 94.86C85.4613 89.0471 82.1744 83.328 78.0802 79.224C73.9847 75.1186 68.2637 71.8095 62.4108 71.8095L62.4108 79.8095ZM77.4613 94.86C77.4613 97.9255 75.7554 101.772 72.6921 104.952C69.6487 108.112 65.835 110.023 62.2979 110.023V118.023C68.6098 118.023 74.3778 114.734 78.4539 110.502C82.51 106.291 85.4613 100.556 85.4613 94.86L77.4613 94.86ZM62.2979 110.023L25.4779 110.023L25.4779 118.023L62.2979 118.023L62.2979 110.023ZM66.4108 75.8095C66.4108 69.966 63.2047 64.4475 59.2635 60.5378C55.3453 56.651 49.9162 53.5794 44.5111 53.5794L44.5111 61.5794C47.0674 61.5794 50.5881 63.2004 53.6294 66.2174C56.6478 69.2116 58.4108 72.8081 58.4108 75.8095H66.4108ZM44.5111 53.5794C39.1497 53.5794 33.3905 56.4963 29.0953 60.4937C24.7597 64.5286 21.1825 70.3482 21.1825 76.908L29.1825 76.908C29.1825 73.2761 31.2344 69.4314 34.5455 66.3499C37.897 63.2309 41.8021 61.5794 44.5111 61.5794L44.5111 53.5794ZM21.1825 76.908L21.1825 101L29.1825 101L29.1825 76.908L21.1825 76.908Z" fill="white"/>
</g>
</svg>
