<svg width="603" height="596" viewBox="0 0 603 596" fill="none" xmlns="http://www.w3.org/2000/svg">
<path d="M301.5 0L338.296 21.7537L379.534 10.1541L409.379 40.5794L452.25 39.9244L473.111 76.948L514.693 87.2822L525.148 128.381L562.607 149L561.944 191.373L592.727 220.872L580.991 261.632L603 298L580.991 334.368L592.727 375.128L561.944 404.627L562.607 447L525.148 467.619L514.693 508.718L473.111 519.052L452.25 556.076L409.379 555.421L379.534 585.846L338.296 574.246L301.5 596L264.704 574.246L223.466 585.846L193.621 555.421L150.75 556.076L129.889 519.052L88.3073 508.718L77.8517 467.619L40.3933 447L41.0561 404.627L10.2734 375.128L22.0092 334.368L0 298L22.0092 261.632L10.2734 220.872L41.0561 191.373L40.3933 149L77.8517 128.381L88.3073 87.2822L129.889 76.948L150.75 39.9244L193.621 40.5794L223.466 10.1541L264.704 21.7537L301.5 0Z" fill="url(#paint0_linear_24_537)"/>
<path d="M301.5 28L334.878 47.7097L372.287 37.2L399.361 64.7666L438.25 64.1731L457.174 97.7179L494.894 107.081L504.378 144.318L538.358 163L537.757 201.392L565.681 228.119L555.035 265.049L575 298L555.035 330.951L565.681 367.881L537.757 394.608L538.358 433L504.378 451.682L494.894 488.919L457.174 498.282L438.25 531.827L399.361 531.233L372.287 558.8L334.878 548.29L301.5 568L268.122 548.29L230.713 558.8L203.639 531.233L164.75 531.827L145.826 498.282L108.106 488.919L98.6217 451.682L64.6421 433L65.2432 394.608L37.3193 367.881L47.9652 330.951L28 298L47.9652 265.049L37.3193 228.119L65.2432 201.392L64.6421 163L98.6217 144.318L108.106 107.081L145.826 97.7179L164.75 64.1731L203.639 64.7666L230.713 37.2L268.122 47.7097L301.5 28Z" fill="url(#paint1_linear_24_537)"/>
<defs>
<linearGradient id="paint0_linear_24_537" x1="301.456" y1="0" x2="301.456" y2="795.122" gradientUnits="userSpaceOnUse">
<stop stop-color="#FFF2AE"/>
<stop offset="1" stop-color="#F5F7A8" stop-opacity="0"/>
</linearGradient>
<linearGradient id="paint1_linear_24_537" x1="302.036" y1="0.727275" x2="302.036" y2="595.273" gradientUnits="userSpaceOnUse">
<stop stop-color="#FD897A"/>
<stop offset="1" stop-color="#FFD584"/>
</linearGradient>
</defs>
</svg>
